PathFileType	4	(X/Y/Z)	C:\Users\WrightLab\Desktop\Jo\P4V132.trc
DataRate	CameraRate	NumFrames	NumMarkers	Units	OrigDataRate	OrigDataStartFrame	OrigNumFrames
100.00	100.00	       44	19	mm	100.00	449	       512
Frame#	Time	Headset_Front			Headset_Back			Headset_Left			Headset_Right			Left_Shoulder			Right_Shoulder			Sternum			C7			Left Elbow			Right Elbow			Left Wrist			Right Wrist			Left ASIS			Right ASIS			S2			Left Knee			Right Knee			Left Ankle			Right Ankle			
		X1	Y1	Z1	X2	Y2	Z2	X3	Y3	Z3	X4	Y4	Z4	X5	Y5	Z5	X6	Y6	Z6	X7	Y7	Z7	X8	Y8	Z8	X9	Y9	Z9	X10	Y10	Z10	X11	Y11	Z11	X12	Y12	Z12	X13	Y13	Z13	X14	Y14	Z14	X15	Y15	Z15	X16	Y16	Z16	X17	Y17	Z17	X18	Y18	Z18	X19	Y19	Z19	

449	4.480																									-539.43073	1169.77771	-1409.30176																									-399.18777	39.24415	-1406.48523	-180.20853	28.50817	-1336.03064	
450	4.490																									-538.26996	1169.82141	-1412.10095																									-395.96295	35.95310	-1418.07434	-180.19354	28.52803	-1336.00952	
451	4.500																									-537.07275	1168.29553	-1419.04529																									-392.91425	35.00647	-1429.64600	-180.19377	28.52457	-1336.00964	
452	4.510																									-534.95483	1169.31055	-1418.81750																									-390.46631	32.55073	-1438.29077	-180.20668	28.50414	-1336.02747	
453	4.520																									-533.88086	1169.79028	-1423.30957																									-388.32208	30.10626	-1447.39478	-180.21762	28.49709	-1336.04346	
454	4.530																									-533.44177	1169.72546	-1427.22766																									-386.23502	29.59828	-1457.94470	-180.21771	28.51781	-1336.04517	
455	4.540																									-531.14557	1169.90332	-1432.29980																									-384.35684	27.68656	-1465.46045	-180.20520	28.51064	-1336.02576	
456	4.550																									-530.41943	1168.96667	-1434.44031																									-383.17624	26.55090	-1471.11743	-180.21516	28.51525	-1336.04114	
457	4.560																									-529.81384	1167.46533	-1442.41760																									-381.83170	24.95060	-1477.51318	-180.21489	28.50996	-1336.04028	
458	4.570																									-529.07434	1168.49634	-1441.80322																									-381.40811	24.52110	-1483.96863	-180.20605	28.51435	-1336.02734	
459	4.580																									-528.11725	1167.53662	-1444.62988																									-381.06717	23.31166	-1488.43774	-180.23918	28.49629	-1336.07593	
460	4.590																									-526.74457	1168.32068	-1451.55225																									-381.35556	24.79417	-1489.86902	-180.23241	28.50465	-1336.06641	
461	4.600																									-526.51544	1166.66882	-1461.71069																									-380.93762	23.47694	-1493.91260	-180.22052	28.50468	-1336.04846	
462	4.610																									-525.89795	1168.26929	-1460.11108																									-381.14929	23.12049	-1495.16504	-180.20952	28.52948	-1336.03381	
463	4.620																									-525.72632	1167.56287	-1463.00403																									-381.97202	23.66551	-1493.48376	-180.19344	28.54597	-1336.01074	
464	4.630																									-524.81561	1167.12610	-1467.37061																									-383.16925	24.67699	-1490.28271	-180.22162	28.51545	-1336.05090	
465	4.640																									-524.34003	1166.43408	-1471.03809																									-383.92789	25.16733	-1489.66345	-180.21877	28.51814	-1336.04688	
466	4.650																									-523.93304	1166.05005	-1475.35242																									-385.10583	26.81008	-1487.48193	-180.21107	28.54083	-1336.03699	
467	4.660																									-523.61542	1165.75061	-1479.87891																									-385.78830	25.39486	-1491.41626	-180.20815	28.54532	-1336.03296	
468	4.670																									-523.53223	1165.58679	-1484.48743																									-387.09927	23.76527	-1493.67822	-180.23483	28.53011	-1336.07202	
469	4.680																									-523.56317	1164.78882	-1487.99841																									-387.29385	23.12100	-1494.72339	-180.20258	28.57541	-1336.02686	
470	4.690																									-522.07471	1165.31519	-1495.93506																									-387.16110	22.52336	-1492.15479	-180.24312	28.53628	-1336.08496	
471	4.700																									-521.82758	1164.11780	-1499.25354																									-387.04514	22.18390	-1490.28394	-180.23714	28.54730	-1336.07690	
472	4.710																									-521.53802	1163.04102	-1502.16907																									-386.85339	22.46066	-1489.14355	-180.43791	28.59390	-1334.31812	
473	4.720																									-521.47406	1162.67065	-1507.55237																									-386.67963	22.83107	-1488.14673	-180.43507	28.59707	-1334.31702	
474	4.730																									-521.31213	1161.46899	-1511.08313																									-386.51041	23.14109	-1487.16016	-180.44089	28.60147	-1334.32031	
475	4.740																									-520.59485	1160.92786	-1516.65759																									-386.36990	23.43824	-1486.35327	-180.43610	28.62189	-1334.32031	
476	4.750																									-519.81360	1160.44507	-1522.05042																									-386.38040	23.38194	-1486.40308	-180.44180	28.63671	-1334.32471	
477	4.760																									-519.38232	1160.70959	-1528.29651																									-386.35101	23.43487	-1486.23132	-180.65700	29.13780	-1334.46741	
478	4.770																									-519.16132	1160.66406	-1533.35339																									-386.43790	23.22949	-1486.72375	-180.83791	29.27599	-1334.53174	
479	4.780																									-518.65839	1160.35791	-1538.05261																									-386.41492	23.25015	-1486.58301	-180.84319	29.29938	-1334.53796	
480	4.790																									-517.67572	1160.09900	-1543.07483																									-386.54089	22.94198	-1487.29370	-180.86209	29.29901	-1334.54883	
481	4.800																									-516.67493	1159.77344	-1547.92334																									-386.53677	22.86985	-1487.24487	-180.95224	29.57800	-1334.75415	
482	4.810																									-516.09650	1160.25781	-1553.78540																									-386.61252	22.73095	-1487.68640	-180.96896	29.59299	-1334.76575	
483	4.820																									-515.44080	1160.75574	-1559.39014																									-386.69083	22.52369	-1488.12341	-180.97444	29.61283	-1334.77161	
484	4.830																									-514.44287	1160.45959	-1564.11414																									-386.72525	22.40804	-1488.30762	-181.15779	30.18395	-1335.18555	
485	4.840																									-513.77209	1159.76672	-1567.78516																									-386.70844	22.43756	-1488.20923	-181.35925	30.09240	-1334.93579	
486	4.850																									-512.89020	1159.00793	-1571.35303																									-386.72644	22.39648	-1488.31177	-181.15288	30.38813	-1335.59045	
487	4.860																									-512.29742	1158.60413	-1575.40002																									-386.65051	22.58866	-1487.88550	-181.16290	30.44829	-1335.32336	
488	4.870																									-511.77478	1157.45911	-1578.09302																									-386.69504	22.42100	-1488.11841	-180.62262	31.19501	-1335.84485	
489	4.880																									-510.30658	1157.63123	-1584.31543																									-386.66681	22.45749	-1487.94897	-181.25807	30.73898	-1335.73584	
490	4.890																									-509.79083	1157.42432	-1588.62134																									-386.64621	22.50303	-1487.83130	-181.07253	31.20989	-1336.46228	
491	4.900																									-509.49225	1157.36975	-1592.84912																									-386.64877	22.51066	-1487.85010	-180.98137	31.13416	-1336.66455	
492	4.910																									-508.98486	1157.21741	-1596.87122																									-386.64807	22.47273	-1487.83362	-181.00703	31.17406	-1336.68469	
